<?xml version="1.0" encoding="utf-8"?>
<!-- Generator: Adobe Illustrator 21.1.0, SVG Export Plug-In . SVG Version: 6.00 Build 0)  -->
<svg version="1.1" id="Warstwa_1" xmlns="http://www.w3.org/2000/svg" xmlns:xlink="http://www.w3.org/1999/xlink" x="0px" y="0px"
	 viewBox="0 0 267 17" style="enable-background:new 0 0 267 17;" xml:space="preserve">
<style type="text/css">
	.st0{fill:#FEFEFE;}
	.st1{fill:#FFFFFF;}
</style>
<title>Group</title>
<desc>Created with Sketch.</desc>
<path id="Fill-4" class="st0" d="M47,16.8l9.9-16.7C56.9,0,57,0,57.1,0h0.8c0,0,0.1,0,0.1,0.1l9.9,16.7c0,0.1,0,0.1,0,0.2
	c0,0,0,0-0.1,0h-3.2c-0.1,0-0.2,0-0.2-0.1L57.4,5l-3.6,6.2h4.8c0.1,0,0.2,0,0.2,0.1l1.5,2.5c0,0.1,0,0.1,0,0.2c0,0,0,0-0.1,0h-8
	l-1.7,2.9c0,0.1-0.1,0.1-0.2,0.1h-3.2c0,0,0,0-0.1,0C46.9,16.9,46.9,16.9,47,16.8"/>
<path id="Fill-7" class="st0" d="M48.7,8.2c0-0.1,0-0.1,0-0.2c0,0,0,0-0.1,0h-7.7V3h10.2c0.1,0,0.2,0,0.2-0.1l1.5-2.5
	c0-0.1,0-0.1,0-0.2c0,0,0,0-0.1,0H37.6c-0.1,0-0.1,0.1-0.1,0.1v16.6c0,0.1,0.1,0.1,0.1,0.1h3.1c0.1,0,0.1-0.1,0.1-0.1v-6H47
	c0.1,0,0.2,0,0.2-0.1L48.7,8.2z"/>
<path id="Fill-10" class="st0" d="M35.2,14.2h-9V0.3c0-0.1-0.1-0.1-0.1-0.1H23c-0.1,0-0.1,0.1-0.1,0.1v16.6C22.9,17,23,17,23,17
	h12.3c0.1,0,0.1-0.1,0.1-0.1v-2.6C35.3,14.2,35.3,14.2,35.2,14.2"/>
<path id="Fill-1" class="st0" d="M21,16.8L11.1,0.1C11.1,0,11,0,10.9,0h-0.8C10,0,9.9,0,9.9,0.1L0,16.8c0,0.1,0,0.1,0,0.2
	c0,0,0,0,0.1,0h3.2c0.1,0,0.2,0,0.2-0.1l7-11.9l3.6,6.2H9.4c-0.1,0-0.2,0-0.2,0.1l-1.5,2.5c0,0.1,0,0.1,0,0.2c0,0,0,0,0.1,0h8
	l1.7,2.9c0,0.1,0.1,0.1,0.2,0.1h3.2c0,0,0,0,0.1,0C21,16.9,21,16.9,21,16.8"/>
<polygon id="Fill-1-path" class="st0" points="88,0 78,16.6 81.7,16.6 91.5,0 "/>
<path class="st1" d="M200.2,0h-7.3l-0.6,3.1h6.9c1.4,0,2.3,0.9,2,2.1l-0.1,0.3c-0.1,0.7-0.7,1.9-2.5,1.9h-7.2L191,9.6l-1.4,7h3.1
	l1.2-6.2h1.4l3.9,6.1h3.7l-4.2-6.2c2.4-0.1,4.9-2,5.4-4.3l0.2-0.9C204.8,2.9,203,0,200.2,0L200.2,0z"/>
<path class="st1" d="M230.2,0h-7.3l-0.6,3.1h6.9c1.4,0,2.3,0.9,2,2.1l-0.1,0.3c-0.1,0.7-0.7,1.9-2.5,1.9h-7.2L221,9.6l-1.4,7h3.1
	l1.2-6.2h1.4l3.9,6.1h3.7l-4.2-6.2c2.4-0.1,4.9-2,5.4-4.3l0.2-0.9C234.8,2.9,233,0,230.2,0L230.2,0z"/>
<polygon class="st1" points="187.5,0 177.4,16.6 181.1,16.6 190.9,0 "/>
<polygon class="st1" points="181.8,5.8 179.5,0 176.2,0 179.8,9.1 "/>
<polygon class="st1" points="162.1,3 166.7,3 164,16.6 167.1,16.6 169.8,3 174,3 174.6,0 162.7,0 "/>
<polygon class="st1" points="101,16.6 112.8,16.6 113.4,13.6 104.9,13.6 105.7,9.8 113.3,9.8 113.9,6.8 106.3,6.8 107,3.1 
	115.5,3.1 116.2,0 104.3,0 "/>
<polygon class="st1" points="219.1,3.1 219.7,0 207.9,0 204.6,16.6 216.4,16.6 217,13.6 208.5,13.6 209.3,9.8 216.8,9.8 217.4,6.8 
	209.9,6.8 210.6,3.1 "/>
<polygon class="st1" points="141.9,9.8 142.5,6.8 134.9,6.8 135.7,3.1 144.2,3.1 144.8,0 133,0 129.6,16.6 141.4,16.6 142.1,13.6 
	133.6,13.6 134.3,9.8 "/>
<polygon class="st1" points="248.4,0 246,12.1 242.7,0 238.5,0 235.1,16.6 238.3,16.6 240.7,4.5 244.3,16.6 248.3,16.6 251.6,0 "/>
<polygon class="st1" points="154.7,12.1 151.5,0 147.2,0 143.9,16.6 147.1,16.6 149.4,4.5 153,16.6 157,16.6 160.4,0 157.2,0 "/>
<polygon class="st1" points="128.2,0 120.8,12.3 120.9,0 117.6,0 117.6,16.7 121.8,16.7 131.7,0 "/>
<polygon class="st1" points="253.4,9.9 264.7,9.9 265.3,6.8 254.1,6.8 "/>
<polygon class="st1" points="252,16.7 263.6,16.7 264.2,13.6 252.6,13.6 "/>
<polygon class="st1" points="255.3,0 267,0 266.4,3.1 254.7,3.1 "/>
</svg>
