<?xml version="1.0" encoding="UTF-8"?>
<svg width="267px" height="17px" viewBox="0 0 267 17" version="1.1" xmlns="http://www.w3.org/2000/svg" xmlns:xlink="http://www.w3.org/1999/xlink">
    <!-- Generator: Sketch 43.1 (39012) - http://www.bohemiancoding.com/sketch -->
    <title>Group</title>
    <desc>Created with Sketch.</desc>
    <defs></defs>
    <g id="Page-1" stroke="none" stroke-width="1" fill="none" fill-rule="evenodd">
        <g id="A4" transform="translate(-272.000000, -413.000000)" fill="#FEFEFE">
            <g id="Group" transform="translate(272.000000, 413.000000)">
                <g id="logo-alfa">
                    <path d="M46.9510359,16.81351 L56.8337026,0.123476667 C56.8807795,0.0435766667 56.9667966,-5.66666664e-05 57.0545573,-5.66666664e-05 L57.819412,-5.66666664e-05 C57.9071726,-5.66666664e-05 57.9926085,0.0435766667 58.0396855,0.123476667 L67.9229333,16.81351 C67.9578051,16.87301 67.9368821,16.94951 67.8758564,16.9840767 C67.8560957,16.99541 67.8340103,16.9999433 67.812506,16.9999433 L64.6484718,16.9999433 C64.5618735,16.9999433 64.4781812,16.9574433 64.4305231,16.8803767 L57.4369846,5.01097667 L53.7992752,11.1842433 L58.5552068,11.1842433 C58.6429675,11.1842433 58.7284034,11.2284433 58.7754803,11.3077767 L60.2697368,13.8311433 C60.3046085,13.89121 60.2836855,13.9671433 60.2226598,14.0011433 C60.2028991,14.0130433 60.1808137,14.0175767 60.1593094,14.0175767 L52.1300786,14.0175767 L50.442865,16.8803767 C50.3952068,16.9574433 50.3115145,16.9999433 50.2249162,16.9999433 L47.0614632,16.9999433 C47.039959,16.9999433 47.0178735,16.99541 46.9975316,16.9840767 C46.9370872,16.94951 46.9155829,16.87301 46.9510359,16.81351" id="Fill-4"></path>
                    <path d="M48.6969504,8.23939 C48.7324034,8.17989 48.7108991,8.10339 48.6504547,8.06939 C48.6301128,8.05749 48.6080274,8.05295667 48.5865231,8.05295667 L40.8537026,8.05295667 L40.8537026,2.98242333 L51.0763692,2.98299 C51.1647111,2.98242333 51.250147,2.93879 51.2966427,2.85889 L52.7908991,0.335523333 C52.8257709,0.276023333 52.8048479,0.199523333 52.7444034,0.165523333 C52.7240615,0.153623333 52.7019761,0.14909 52.6804718,0.14909 L37.6158564,0.14909 C37.5455316,0.14909 37.4885744,0.204623333 37.4885744,0.27319 L37.4885744,16.8759567 C37.4885744,16.9439567 37.5455316,17.0000567 37.6158564,17.0000567 L40.7264205,17.0000567 C40.7967453,17.0000567 40.8531214,16.9445233 40.8537026,16.8765233 L40.8537026,10.88629 L46.9824205,10.88629 C47.0707624,10.88629 47.1561983,10.8426567 47.2032752,10.7627567 L48.6969504,8.23939 Z" id="Fill-7"></path>
                    <path d="M35.218653,14.1606033 L26.168841,14.1606033 L26.168841,0.26707 C26.168841,0.198503333 26.1118838,0.14297 26.041559,0.14297 L22.9309949,0.14297 C22.8612513,0.14297 22.804294,0.198503333 22.804294,0.26707 L22.804294,16.8698367 C22.804294,16.9378367 22.8612513,16.9939367 22.9309949,16.9939367 L35.218653,16.9939367 C35.2889778,16.9939367 35.345935,16.9378367 35.345935,16.8698367 L35.345935,14.2847033 C35.345935,14.2167033 35.2889778,14.1606033 35.218653,14.1606033" id="Fill-10"></path>
                    <path d="M20.9888103,16.81351 L11.1055624,0.123476667 C11.0590667,0.0435766667 10.9736308,-5.66666664e-05 10.8852889,-5.66666664e-05 L10.1204342,-5.66666664e-05 C10.0326735,-5.66666664e-05 9.94665641,0.0435766667 9.90016068,0.123476667 L0.0169128205,16.81351 C-0.0179589744,16.87301 0.00296410256,16.94951 0.063408547,16.9840767 C0.0837504274,16.99541 0.105835897,16.9999433 0.127340171,16.9999433 L3.29137436,16.9999433 C3.37797265,16.9999433 3.46166496,16.9574433 3.50932308,16.8803767 L10.5028615,5.01097667 L14.1405709,11.1842433 L9.38463932,11.1842433 C9.29687863,11.1842433 9.21144274,11.2284433 9.16436581,11.3077767 L7.6701094,13.8311433 C7.63523761,13.89121 7.65557949,13.9671433 7.71660513,14.0011433 C7.73694701,14.0130433 7.75903248,14.0175767 7.78053675,14.0175767 L15.8103487,14.0175767 L17.4969812,16.8803767 C17.5446393,16.9574433 17.6283316,16.9999433 17.7149299,16.9999433 L20.8783829,16.9999433 C20.8998872,16.9999433 20.9219726,16.99541 20.9423145,16.9840767 C21.002759,16.94951 21.0242632,16.87301 20.9888103,16.81351" id="Fill-1"></path>
                </g>
                <polygon id="Fill-1-path" points="88.037 0 78 16.634 81.664 16.634 91.479 0"></polygon>
                <g id="explorer-logo" transform="translate(101.000000, 0.000000)" fill-rule="nonzero">
                    <path d="M99.2072,0.0368 L91.8932,0.0368 L91.2792,3.0868 L98.1702,3.0868 C99.6052,3.0868 100.4292,3.9588 100.1682,5.1608 L100.1002,5.4668 C99.9562,6.1178 99.3552,7.3508 97.6052,7.3508 L90.4202,7.3508 L89.9762,9.6228 L88.5682,16.6178 L91.6512,16.6178 L92.8892,10.4658 L94.3282,10.4658 L98.2652,16.6148 L101.9682,16.6148 L97.8032,10.4558 C100.2232,10.3958 102.7472,8.4748 103.1992,6.1638 L103.3672,5.3078 C103.8322,2.9338 102.0252,0.0368 99.2072,0.0368 L99.2072,0.0368 Z M129.2072,0.0368 L121.8932,0.0368 L121.2792,3.0868 L128.1702,3.0868 C129.6052,3.0868 130.4292,3.9588 130.1682,5.1608 L130.1002,5.4668 C129.9562,6.1178 129.3552,7.3508 127.6052,7.3508 L120.4202,7.3508 L119.9762,9.6228 L118.5682,16.6178 L121.6512,16.6178 L122.8892,10.4658 L124.3282,10.4658 L128.2652,16.6148 L131.9682,16.6148 L127.8032,10.4558 C130.2232,10.3958 132.7472,8.4748 133.1992,6.1638 L133.3672,5.3078 C133.8322,2.9338 132.0252,0.0368 129.2072,0.0368 L129.2072,0.0368 Z M86.4782,0.0108 L76.4412,16.6448 L80.1052,16.6448 L89.9202,0.0108 L86.4782,0.0108 Z M80.7712,5.7598 L78.4912,0.0108 L75.1752,0.0108 L78.7832,9.0548 L80.7712,5.7598 Z M61.0562,3.0268 L65.7132,3.0268 L62.9772,16.6498 L66.0602,16.6498 L68.7962,3.0268 L73.0222,3.0268 L73.6342,0.0048 L61.6682,0.0048 L61.0562,3.0268 Z M0.0002,16.6308 L11.8182,16.6308 L12.4332,13.5798 L3.9432,13.5798 L4.6992,9.8298 L12.2692,9.8298 L12.8792,6.7768 L5.3082,6.7768 L6.0472,3.0948 L14.5492,3.0948 L15.1642,0.0248 L3.3342,0.0248 L0.0002,16.6308 Z M118.1052,3.0948 L118.7212,0.0248 L106.8902,0.0248 L103.5562,16.6308 L115.3752,16.6308 L115.9902,13.5798 L107.5002,13.5798 L108.2562,9.8298 L115.8262,9.8298 L116.4352,6.7768 L108.8652,6.7768 L109.6032,3.0948 L118.1052,3.0948 Z M40.8942,9.8298 L41.5042,6.7768 L33.9332,6.7768 L34.6722,3.0948 L43.1742,3.0948 L43.7892,0.0248 L31.9592,0.0248 L28.6252,16.6308 L40.4432,16.6308 L41.0582,13.5798 L32.5682,13.5798 L33.3242,9.8298 L40.8942,9.8298 Z M162.8192,0.0118 L160.3952,12.1408 L157.1342,0.0348 L152.8722,0.0348 L149.5382,16.6438 L152.7392,16.6438 L155.0872,4.5338 L158.6882,16.6198 L162.6862,16.6198 L166.0182,0.0118 L162.8192,0.0118 Z M53.7412,12.1408 L50.4792,0.0348 L46.2172,0.0348 L42.8832,16.6438 L46.0852,16.6438 L48.4322,4.5338 L52.0342,16.6198 L56.0322,16.6198 L59.3642,0.0118 L56.1652,0.0118 L53.7412,12.1408 Z M27.2172,-0.0002 L19.8102,12.2688 L19.8762,-0.0002 L16.5592,-0.0002 L16.5702,16.6548 L20.8362,16.6548 L30.6642,-0.0002 L27.2172,-0.0002 Z M135.4462,9.8718 L146.6992,9.8718 L147.3132,6.8218 L136.0562,6.8218 L135.4462,9.8718 Z M133.9992,16.6748 L145.6372,16.6748 L146.2482,13.6248 L134.6142,13.6248 L133.9992,16.6748 Z M137.3452,0.0188 L148.9792,0.0188 L148.3612,3.0928 L136.7262,3.0928 L137.3452,0.0188 Z" id="Fill-1"></path>
                </g>
            </g>
        </g>
    </g>
</svg>